<svg width="40" height="40" viewBox="0 0 40 40" fill="none" xmlns="http://www.w3.org/2000/svg">
<circle opacity="0.08" cx="20" cy="20" r="20" transform="rotate(-90 20 20)" fill="#218CEF"/>
<path d="M18.1623 21C18.0548 21 17.948 21.0173 17.846 21.0513L15.6838 21.7721C15.2754 21.9082 15 22.2903 15 22.7208L15 26.0018C15 26.5541 15.4477 27.0018 16 27.0018H16.7641C16.9192 27.0018 17.0722 27.0379 17.211 27.1072L20.5947 28.7976C20.8523 28.9262 21.151 28.9384 21.4172 28.8286C22.7878 28.2635 27.1946 26.4289 29.4741 25.275C29.801 25.1095 30 24.772 30 24.4056V24.3257C30 23.6614 29.3641 23.1817 28.7253 23.3642L23.2975 24.915C23.1037 24.9704 22.8977 24.9659 22.7065 24.9022L20.5549 24.185C20.3 24.1 20.2236 23.7764 20.4136 23.5864V23.5864C20.4696 23.5304 20.5425 23.4943 20.6211 23.4837L23.1331 23.1465C23.6295 23.0799 24 22.6562 24 22.1554L24 22C24 21.4477 23.5523 21 23 21H18.1623Z" fill="#218CEF"/>
<circle cx="20" cy="14" r="2" fill="#218CEF"/>
<circle cx="26.5" cy="17.5" r="2.5" fill="#218CEF"/>
<rect x="11" y="22" width="3" height="5" rx="1" fill="#218CEF"/>
</svg>
