<svg width="40" height="40" viewBox="0 0 40 40" fill="none" xmlns="http://www.w3.org/2000/svg">
<path fill-rule="evenodd" clip-rule="evenodd" d="M21.9355 12.8226L21.6129 10.3226C21.6129 10.0806 21.4516 10 21.2903 10H18.7097C18.5484 10 18.3871 10.0806 18.3871 10.2419L18.0645 12.8226C18.0645 12.9032 18.0645 12.9839 17.9839 12.9839C17.4194 13.1452 16.9355 13.3871 16.5323 13.629C16.4516 13.629 16.371 13.629 16.2903 13.5484L14.2742 12.0161C14.1129 11.8548 13.9516 11.9355 13.871 12.0161L12.0161 13.871C11.9355 13.9516 11.8548 14.1129 12.0161 14.2742L13.5484 16.2903C13.629 16.371 13.629 16.4516 13.629 16.5323C13.3065 16.9355 13.1452 17.4194 12.9839 17.9839C12.9839 18.0645 12.9032 18.0645 12.8226 18.0645L10.2419 18.3871C10.0806 18.3871 10 18.5484 10 18.7097V21.2903C10 21.4516 10.0806 21.6129 10.3226 21.6129L12.8226 21.9355C12.9032 21.9355 12.9839 22.0161 12.9839 22.0968C13.1452 22.5806 13.3871 23.0645 13.629 23.4677C13.629 23.5484 13.629 23.629 13.5484 23.7097L12.0161 25.7258C11.8548 25.8871 11.9355 26.0484 12.0161 26.2097L13.871 27.9839C13.9516 28.1452 14.1129 28.1452 14.2742 28.0645L16.2903 26.4516C16.371 26.371 16.4516 26.371 16.5323 26.4516C16.9355 26.6935 17.4194 26.8548 17.9839 27.0161C18.0645 27.0161 18.0645 27.0968 18.0645 27.1774L18.3871 29.7581C18.3871 29.9194 18.5484 30 18.7097 30H21.2903C21.4516 30 21.6129 29.9194 21.6129 29.7581L21.9355 27.1774C21.9355 27.0968 22.0161 27.0161 22.0968 27.0161C22.5806 26.8548 23.0645 26.6935 23.4677 26.4516C23.5484 26.371 23.629 26.371 23.7097 26.4516L25.7258 28.0645C25.8871 28.1452 26.0484 28.1452 26.2097 27.9839L27.9839 26.2097C28.1452 26.0484 28.1452 25.8871 28.0645 25.7258L26.4516 23.7097C26.371 23.629 26.371 23.5484 26.4516 23.4677C26.6935 23.0645 26.8548 22.5806 27.0161 22.0968C27.0161 22.0161 27.0968 21.9355 27.1774 21.9355L29.7581 21.6129C29.9194 21.6129 30 21.4516 30 21.2903V18.7097C30 18.5484 29.9194 18.3871 29.7581 18.3871L27.1774 18.0645C27.0968 18.0645 27.0161 18.0645 27.0161 17.9839C26.8548 17.4194 26.6935 16.9355 26.4516 16.5323C26.371 16.4516 26.371 16.371 26.4516 16.2903L28.0645 14.2742C28.1452 14.1129 28.1452 13.9516 27.9839 13.871L26.2097 12.0161C26.0484 11.9355 25.8871 11.8548 25.7258 12.0161L23.7097 13.5484C23.629 13.629 23.5484 13.629 23.4677 13.629C23.0645 13.3871 22.5806 13.1452 22.0968 12.9839C22.0161 12.9839 21.9355 12.9032 21.9355 12.8226ZM20 15.9677C22.2581 15.9677 24.0323 17.8226 24.0323 20C24.0323 22.2581 22.2581 24.0323 20 24.0323C17.8226 24.0323 15.9677 22.2581 15.9677 20C15.9677 17.8226 17.8226 15.9677 20 15.9677Z" fill="#333333"/>
<path fill-rule="evenodd" clip-rule="evenodd" d="M21.9355 12.8226L21.6129 10.3226C21.6129 10.0806 21.4516 10 21.2903 10H18.7097C18.5484 10 18.3871 10.0806 18.3871 10.2419L18.0645 12.8226C18.0645 12.9032 18.0645 12.9839 17.9839 12.9839C17.4194 13.1452 16.9355 13.3871 16.5323 13.629C16.4516 13.629 16.371 13.629 16.2903 13.5484L14.2742 12.0161C14.1129 11.8548 13.9516 11.9355 13.871 12.0161L12.0161 13.871C11.9355 13.9516 11.8548 14.1129 12.0161 14.2742L13.5484 16.2903C13.629 16.371 13.629 16.4516 13.629 16.5323C13.3065 16.9355 13.1452 17.4194 12.9839 17.9839C12.9839 18.0645 12.9032 18.0645 12.8226 18.0645L10.2419 18.3871C10.0806 18.3871 10 18.5484 10 18.7097V21.2903C10 21.4516 10.0806 21.6129 10.3226 21.6129L12.8226 21.9355C12.9032 21.9355 12.9839 22.0161 12.9839 22.0968C13.1452 22.5806 13.3871 23.0645 13.629 23.4677C13.629 23.5484 13.629 23.629 13.5484 23.7097L12.0161 25.7258C11.8548 25.8871 11.9355 26.0484 12.0161 26.2097L13.871 27.9839C13.9516 28.1452 14.1129 28.1452 14.2742 28.0645L16.2903 26.4516C16.371 26.371 16.4516 26.371 16.5323 26.4516C16.9355 26.6935 17.4194 26.8548 17.9839 27.0161C18.0645 27.0161 18.0645 27.0968 18.0645 27.1774L18.3871 29.7581C18.3871 29.9194 18.5484 30 18.7097 30H21.2903C21.4516 30 21.6129 29.9194 21.6129 29.7581L21.9355 27.1774C21.9355 27.0968 22.0161 27.0161 22.0968 27.0161C22.5806 26.8548 23.0645 26.6935 23.4677 26.4516C23.5484 26.371 23.629 26.371 23.7097 26.4516L25.7258 28.0645C25.8871 28.1452 26.0484 28.1452 26.2097 27.9839L27.9839 26.2097C28.1452 26.0484 28.1452 25.8871 28.0645 25.7258L26.4516 23.7097C26.371 23.629 26.371 23.5484 26.4516 23.4677C26.6935 23.0645 26.8548 22.5806 27.0161 22.0968C27.0161 22.0161 27.0968 21.9355 27.1774 21.9355L29.7581 21.6129C29.9194 21.6129 30 21.4516 30 21.2903V18.7097C30 18.5484 29.9194 18.3871 29.7581 18.3871L27.1774 18.0645C27.0968 18.0645 27.0161 18.0645 27.0161 17.9839C26.8548 17.4194 26.6935 16.9355 26.4516 16.5323C26.371 16.4516 26.371 16.371 26.4516 16.2903L28.0645 14.2742C28.1452 14.1129 28.1452 13.9516 27.9839 13.871L26.2097 12.0161C26.0484 11.9355 25.8871 11.8548 25.7258 12.0161L23.7097 13.5484C23.629 13.629 23.5484 13.629 23.4677 13.629C23.0645 13.3871 22.5806 13.1452 22.0968 12.9839C22.0161 12.9839 21.9355 12.9032 21.9355 12.8226ZM20 15.9677C22.2581 15.9677 24.0323 17.8226 24.0323 20C24.0323 22.2581 22.2581 24.0323 20 24.0323C17.8226 24.0323 15.9677 22.2581 15.9677 20C15.9677 17.8226 17.8226 15.9677 20 15.9677Z" fill="#131037"/>
</svg>
